<svg width="85" height="44" viewBox="0 0 85 44" fill="none" xmlns="http://www.w3.org/2000/svg">
<path d="M11.64 18.96C11.64 20.1867 11.6867 21.2 11.78 22C10.8733 21.96 9.34667 21.94 7.2 21.94C4.29333 21.94 2.12 21.96 0.68 22V21.6C1.12 21.5733 1.44 21.52 1.64 21.44C1.85333 21.36 1.99333 21.2067 2.06 20.98C2.14 20.7533 2.18 20.3867 2.18 19.88V9.96C2.18 9.45333 2.14 9.08667 2.06 8.86C1.99333 8.63333 1.85333 8.48 1.64 8.4C1.44 8.32 1.12 8.26667 0.68 8.24V7.84C2.12 7.88 4.29333 7.9 7.2 7.9C9.16 7.9 10.5533 7.88 11.38 7.84C11.2867 8.94667 11.24 9.93333 11.24 10.8C11.24 11.3867 11.26 11.84 11.3 12.16H10.84C10.64 10.7333 10.28 9.73333 9.76 9.16C9.24 8.58667 8.50667 8.3 7.56 8.3H6.74C6.32667 8.3 6.02667 8.33333 5.84 8.4C5.65333 8.46667 5.52667 8.6 5.46 8.8C5.39333 8.98667 5.36 9.29333 5.36 9.72V14.68H6C6.70667 14.68 7.24 14.42 7.6 13.9C7.97333 13.38 8.23333 12.76 8.38 12.04H8.84C8.8 12.6 8.78 13.2267 8.78 13.92V14.88C8.78 15.56 8.82 16.5067 8.9 17.72H8.44C8.16 15.96 7.34667 15.08 6 15.08H5.36V20.12C5.36 20.5467 5.39333 20.86 5.46 21.06C5.52667 21.2467 5.65333 21.3733 5.84 21.44C6.02667 21.5067 6.32667 21.54 6.74 21.54H7.72C8.66667 21.54 9.42667 21.22 10 20.58C10.5867 19.9267 11 18.8267 11.24 17.28H11.7C11.66 17.72 11.64 18.28 11.64 18.96ZM18.2558 11.42C19.1491 11.42 19.9224 11.6333 20.5758 12.06C21.2024 12.4733 21.5158 12.9867 21.5158 13.6C21.5158 13.9467 21.4158 14.22 21.2158 14.42C21.0158 14.62 20.7624 14.72 20.4558 14.72C20.1491 14.72 19.8891 14.6333 19.6758 14.46C19.4624 14.2733 19.3558 14.0267 19.3558 13.72C19.3558 13.44 19.4358 13.2067 19.5958 13.02C19.7558 12.82 19.9558 12.6867 20.1958 12.62C20.0624 12.38 19.8224 12.18 19.4758 12.02C19.1424 11.86 18.7824 11.78 18.3958 11.78C17.9024 11.78 17.4424 11.94 17.0158 12.26C16.5891 12.5667 16.2358 13.0867 15.9558 13.82C15.6758 14.54 15.5358 15.4933 15.5358 16.68C15.5358 18.3333 15.8024 19.54 16.3358 20.3C16.8691 21.0467 17.5624 21.42 18.4158 21.42C18.9891 21.42 19.5291 21.2533 20.0358 20.92C20.5558 20.5867 20.9824 20.0667 21.3158 19.36L21.6958 19.5C21.4691 20.26 21.0424 20.9133 20.4158 21.46C19.8024 22.0067 19.0024 22.28 18.0158 22.28C17.1891 22.28 16.4358 22.0667 15.7558 21.64C15.0891 21.2133 14.5624 20.6 14.1758 19.8C13.7891 18.9867 13.5958 18.0467 13.5958 16.98C13.5958 15.9 13.7891 14.94 14.1758 14.1C14.5758 13.26 15.1291 12.6067 15.8358 12.14C16.5424 11.66 17.3491 11.42 18.2558 11.42ZM27.9823 11.42C28.8757 11.42 29.649 11.6333 30.3023 12.06C30.929 12.4733 31.2423 12.9867 31.2423 13.6C31.2423 13.9467 31.1423 14.22 30.9423 14.42C30.7423 14.62 30.489 14.72 30.1823 14.72C29.8757 14.72 29.6157 14.6333 29.4023 14.46C29.189 14.2733 29.0823 14.0267 29.0823 13.72C29.0823 13.44 29.1623 13.2067 29.3223 13.02C29.4823 12.82 29.6823 12.6867 29.9223 12.62C29.789 12.38 29.549 12.18 29.2023 12.02C28.869 11.86 28.509 11.78 28.1223 11.78C27.629 11.78 27.169 11.94 26.7423 12.26C26.3157 12.5667 25.9623 13.0867 25.6823 13.82C25.4023 14.54 25.2623 15.4933 25.2623 16.68C25.2623 18.3333 25.529 19.54 26.0623 20.3C26.5957 21.0467 27.289 21.42 28.1423 21.42C28.7157 21.42 29.2557 21.2533 29.7623 20.92C30.2823 20.5867 30.709 20.0667 31.0423 19.36L31.4223 19.5C31.1957 20.26 30.769 20.9133 30.1423 21.46C29.529 22.0067 28.729 22.28 27.7423 22.28C26.9157 22.28 26.1623 22.0667 25.4823 21.64C24.8157 21.2133 24.289 20.6 23.9023 19.8C23.5157 18.9867 23.3223 18.0467 23.3223 16.98C23.3223 15.9 23.5157 14.94 23.9023 14.1C24.3023 13.26 24.8557 12.6067 25.5623 12.14C26.269 11.66 27.0757 11.42 27.9823 11.42ZM35.8889 20.14C35.8889 20.6867 36.0022 21.0667 36.2289 21.28C36.4556 21.48 36.8489 21.58 37.4089 21.58V22C36.1822 21.9467 35.3756 21.92 34.9889 21.92C34.6022 21.92 33.7956 21.9467 32.5689 22V21.58C33.1289 21.58 33.5222 21.48 33.7489 21.28C33.9756 21.0667 34.0889 20.6867 34.0889 20.14V8.72C34.0889 8.10667 33.9756 7.66 33.7489 7.38C33.5222 7.1 33.1289 6.96 32.5689 6.96V6.54C32.9822 6.58 33.3956 6.6 33.8089 6.6C34.6489 6.6 35.3422 6.50667 35.8889 6.32V20.14ZM46.9163 19.6C46.6763 20.3333 46.2229 20.9667 45.5563 21.5C44.9029 22.02 44.1096 22.28 43.1763 22.28C42.2296 22.28 41.4096 22.0667 40.7163 21.64C40.0229 21.2 39.4896 20.5933 39.1163 19.82C38.7563 19.0333 38.5763 18.1267 38.5763 17.1C38.5763 15.94 38.7629 14.9333 39.1363 14.08C39.5096 13.2267 40.0363 12.5733 40.7163 12.12C41.3963 11.6533 42.1896 11.42 43.0963 11.42C44.2963 11.42 45.2163 11.7867 45.8563 12.52C46.5096 13.24 46.8363 14.34 46.8363 15.82H40.5763C40.5363 16.1933 40.5163 16.62 40.5163 17.1C40.5163 17.98 40.6563 18.7467 40.9363 19.4C41.2296 20.0533 41.6096 20.56 42.0763 20.92C42.5563 21.2667 43.0563 21.44 43.5763 21.44C44.2163 21.44 44.7829 21.2867 45.2763 20.98C45.7696 20.6733 46.1829 20.16 46.5163 19.44L46.9163 19.6ZM43.0163 11.8C42.3896 11.8 41.8496 12.1067 41.3963 12.72C40.9429 13.3333 40.6629 14.24 40.5563 15.44H44.9163C44.9429 14.4 44.7896 13.5333 44.4563 12.84C44.1363 12.1467 43.6563 11.8 43.0163 11.8ZM51.9334 11.42C52.4134 11.42 52.8401 11.4933 53.2134 11.64C53.5868 11.7867 53.8868 11.96 54.1134 12.16C54.2601 12.2667 54.3801 12.32 54.4734 12.32C54.7134 12.32 54.8601 12.0267 54.9134 11.44H55.3734C55.3201 12.0933 55.2934 13.2267 55.2934 14.84H54.8334C54.6868 13.96 54.4001 13.2333 53.9734 12.66C53.5601 12.0867 52.9401 11.8 52.1134 11.8C51.6334 11.8 51.2401 11.94 50.9334 12.22C50.6268 12.4867 50.4734 12.86 50.4734 13.34C50.4734 13.8067 50.6334 14.2 50.9534 14.52C51.2734 14.8267 51.7868 15.2 52.4934 15.64C52.6134 15.7067 52.7934 15.82 53.0334 15.98C53.6468 16.38 54.1401 16.7333 54.5134 17.04C54.8868 17.3467 55.1868 17.7 55.4134 18.1C55.6534 18.5 55.7734 18.96 55.7734 19.48C55.7734 20.36 55.4401 21.0467 54.7734 21.54C54.1201 22.0333 53.3134 22.28 52.3534 22.28C51.7534 22.28 51.2268 22.1867 50.7734 22C50.4801 21.8533 50.2068 21.6733 49.9534 21.46C49.9001 21.4067 49.8401 21.38 49.7734 21.38C49.6801 21.38 49.5934 21.4467 49.5134 21.58C49.4468 21.7133 49.3934 21.9 49.3534 22.14H48.8934C48.9468 21.38 48.9734 20.0467 48.9734 18.14H49.4334C49.5801 19.3933 49.8468 20.3333 50.2334 20.96C50.6201 21.5733 51.2801 21.88 52.2134 21.88C52.6801 21.88 53.0934 21.7267 53.4534 21.42C53.8134 21.1133 53.9934 20.6333 53.9934 19.98C53.9934 19.46 53.8134 19.02 53.4534 18.66C53.1068 18.3 52.5334 17.8667 51.7334 17.36C51.0801 16.9467 50.5734 16.6067 50.2134 16.34C49.8668 16.0733 49.5734 15.7467 49.3334 15.36C49.0934 14.9733 48.9734 14.52 48.9734 14C48.9734 13.16 49.2534 12.52 49.8134 12.08C50.3734 11.64 51.0801 11.42 51.9334 11.42ZM59.5788 6.7C59.9254 6.7 60.2254 6.82667 60.4788 7.08C60.7321 7.33333 60.8588 7.63333 60.8588 7.98C60.8588 8.32667 60.7321 8.62667 60.4788 8.88C60.2254 9.13333 59.9254 9.26 59.5788 9.26C59.2321 9.26 58.9321 9.13333 58.6788 8.88C58.4254 8.62667 58.2988 8.32667 58.2988 7.98C58.2988 7.63333 58.4254 7.33333 58.6788 7.08C58.9321 6.82667 59.2321 6.7 59.5788 6.7ZM60.6188 20.14C60.6188 20.6867 60.7321 21.0667 60.9588 21.28C61.1854 21.48 61.5788 21.58 62.1388 21.58V22C60.9121 21.9467 60.1054 21.92 59.7188 21.92C59.3321 21.92 58.5254 21.9467 57.2988 22V21.58C57.8588 21.58 58.2521 21.48 58.4788 21.28C58.7054 21.0667 58.8188 20.6867 58.8188 20.14V13.88C58.8188 13.2667 58.7054 12.82 58.4788 12.54C58.2521 12.26 57.8588 12.12 57.2988 12.12V11.7C57.7254 11.74 58.1388 11.76 58.5388 11.76C59.3788 11.76 60.0721 11.6667 60.6188 11.48V20.14ZM65.8381 22.14C64.9981 22.14 64.3715 21.9333 63.9581 21.52C63.5581 21.0933 63.3581 20.5067 63.3581 19.76C63.3581 19.16 63.5181 18.6667 63.8381 18.28C64.1715 17.8933 64.5581 17.5867 64.9981 17.36C65.4515 17.1333 66.0448 16.8933 66.7781 16.64C67.5248 16.3867 68.0781 16.1533 68.4381 15.94C68.7981 15.7267 68.9781 15.44 68.9781 15.08V13.84C68.9781 13.0667 68.8115 12.54 68.4781 12.26C68.1581 11.9667 67.7048 11.82 67.1181 11.82C66.1848 11.82 65.5248 12.06 65.1381 12.54C65.4048 12.6067 65.6248 12.7467 65.7981 12.96C65.9848 13.1733 66.0781 13.44 66.0781 13.76C66.0781 14.0933 65.9715 14.36 65.7581 14.56C65.5448 14.7467 65.2715 14.84 64.9381 14.84C64.5648 14.84 64.2848 14.7267 64.0981 14.5C63.9115 14.26 63.8181 13.9733 63.8181 13.64C63.8181 13.32 63.8915 13.0533 64.0381 12.84C64.1981 12.6267 64.4315 12.4133 64.7381 12.2C65.0581 11.9733 65.4648 11.7867 65.9581 11.64C66.4515 11.4933 66.9915 11.42 67.5781 11.42C68.6181 11.42 69.4048 11.6667 69.9381 12.16C70.2715 12.4667 70.4915 12.84 70.5981 13.28C70.7181 13.7067 70.7781 14.2733 70.7781 14.98V20.54C70.7781 20.8733 70.8248 21.1133 70.9181 21.26C71.0115 21.4067 71.1715 21.48 71.3981 21.48C71.5581 21.48 71.7048 21.4467 71.8381 21.38C71.9848 21.3 72.1381 21.1933 72.2981 21.06L72.5181 21.4C72.1715 21.6667 71.8715 21.86 71.6181 21.98C71.3781 22.0867 71.0715 22.14 70.6981 22.14C70.0581 22.14 69.6115 21.98 69.3581 21.66C69.1048 21.34 68.9781 20.9067 68.9781 20.36C68.5781 21.0267 68.1181 21.4933 67.5981 21.76C67.0781 22.0133 66.4915 22.14 65.8381 22.14ZM66.7181 21.34C67.5981 21.34 68.3515 20.8333 68.9781 19.82V15.9C68.8581 16.0867 68.6915 16.24 68.4781 16.36C68.2648 16.48 67.9381 16.64 67.4981 16.84C66.9915 17.0533 66.5781 17.26 66.2581 17.46C65.9515 17.6467 65.6848 17.9067 65.4581 18.24C65.2315 18.5733 65.1181 19 65.1181 19.52C65.1181 20.12 65.2648 20.5733 65.5581 20.88C65.8515 21.1867 66.2381 21.34 66.7181 21.34Z" fill="white"/>
<path d="M10.6787 35.0098C10.5322 36.3574 10.0488 37.3887 9.22852 38.1035C8.41406 38.8184 7.32715 39.1758 5.96777 39.1758C5.01855 39.1758 4.17773 38.9385 3.44531 38.4639C2.71875 37.9893 2.15625 37.3184 1.75781 36.4512C1.35938 35.5781 1.15723 34.582 1.15137 33.4629V31.8018C1.15137 30.665 1.35059 29.6572 1.74902 28.7783C2.14746 27.8994 2.71875 27.2227 3.46289 26.748C4.21289 26.2676 5.07422 26.0273 6.04688 26.0273C7.41797 26.0273 8.49902 26.3994 9.29004 27.1436C10.0869 27.8818 10.5498 28.9043 10.6787 30.2109H9.58887C9.31934 28.0371 8.13867 26.9502 6.04688 26.9502C4.88672 26.9502 3.96094 27.3838 3.26953 28.251C2.58398 29.1182 2.24121 30.3164 2.24121 31.8457V33.4102C2.24121 34.8867 2.5752 36.0645 3.24316 36.9434C3.91699 37.8223 4.8252 38.2617 5.96777 38.2617C7.09863 38.2617 7.95117 37.9922 8.52539 37.4531C9.09961 36.9082 9.4541 36.0938 9.58887 35.0098H10.6787ZM19.0635 39C18.958 38.7012 18.8906 38.2588 18.8613 37.6729C18.4922 38.1533 18.0205 38.5254 17.4463 38.7891C16.8779 39.0469 16.2744 39.1758 15.6357 39.1758C14.7217 39.1758 13.9805 38.9209 13.4121 38.4111C12.8496 37.9014 12.5684 37.2568 12.5684 36.4775C12.5684 35.5518 12.9521 34.8193 13.7197 34.2803C14.4932 33.7412 15.5684 33.4717 16.9453 33.4717H18.8525V32.3906C18.8525 31.7109 18.6416 31.1777 18.2197 30.791C17.8037 30.3984 17.1943 30.2021 16.3916 30.2021C15.6592 30.2021 15.0527 30.3896 14.5723 30.7646C14.0918 31.1396 13.8516 31.5908 13.8516 32.1182L12.7969 32.1094C12.7969 31.3535 13.1484 30.7002 13.8516 30.1494C14.5547 29.5928 15.4189 29.3145 16.4443 29.3145C17.5049 29.3145 18.3398 29.5811 18.9492 30.1143C19.5645 30.6416 19.8809 31.3799 19.8984 32.3291V36.8291C19.8984 37.749 19.9951 38.4375 20.1885 38.8945V39H19.0635ZM15.7588 38.2441C16.4619 38.2441 17.0889 38.0742 17.6396 37.7344C18.1963 37.3945 18.6006 36.9404 18.8525 36.3721V34.2803H16.9717C15.9229 34.292 15.1025 34.4854 14.5107 34.8604C13.9189 35.2295 13.623 35.7393 13.623 36.3896C13.623 36.9229 13.8193 37.3652 14.2119 37.7168C14.6104 38.0684 15.126 38.2441 15.7588 38.2441ZM24.3457 27.0557V29.4902H26.3145V30.3516H24.3457V36.6885C24.3457 37.2158 24.4395 37.6084 24.627 37.8662C24.8203 38.124 25.1396 38.2529 25.585 38.2529C25.7607 38.2529 26.0449 38.2236 26.4375 38.165L26.4814 39.0264C26.2061 39.126 25.8311 39.1758 25.3564 39.1758C24.6357 39.1758 24.1113 38.9678 23.7832 38.5518C23.4551 38.1299 23.291 37.5117 23.291 36.6973V30.3516H21.542V29.4902H23.291V27.0557H24.3457ZM29.54 31.0986C29.8857 30.5303 30.3281 30.0908 30.8672 29.7803C31.4062 29.4697 31.9951 29.3145 32.6338 29.3145C33.6533 29.3145 34.4121 29.6016 34.9102 30.1758C35.4082 30.75 35.6602 31.6113 35.666 32.7598V39H34.6201V32.751C34.6143 31.9014 34.4326 31.2686 34.0752 30.8525C33.7236 30.4365 33.1582 30.2285 32.3789 30.2285C31.7285 30.2285 31.1514 30.4336 30.6475 30.8438C30.1494 31.248 29.7803 31.7959 29.54 32.4873V39H28.4941V25.5H29.54V31.0986ZM37.793 34.1045C37.793 33.1904 37.9688 32.3672 38.3203 31.6348C38.6777 30.9023 39.1787 30.334 39.8232 29.9297C40.4736 29.5195 41.209 29.3145 42.0293 29.3145C43.2949 29.3145 44.3203 29.7598 45.1055 30.6504C45.8906 31.5352 46.2832 32.71 46.2832 34.1748V34.3945C46.2832 35.3145 46.1045 36.1436 45.7471 36.8818C45.3955 37.6143 44.8975 38.1797 44.2529 38.5781C43.6084 38.9766 42.873 39.1758 42.0469 39.1758C40.7871 39.1758 39.7617 38.7334 38.9707 37.8486C38.1855 36.958 37.793 35.7803 37.793 34.3154V34.1045ZM38.8477 34.3945C38.8477 35.5312 39.1406 36.4658 39.7266 37.1982C40.3184 37.9248 41.0918 38.2881 42.0469 38.2881C42.9961 38.2881 43.7637 37.9248 44.3496 37.1982C44.9414 36.4658 45.2373 35.502 45.2373 34.3066V34.1045C45.2373 33.3779 45.1025 32.7129 44.833 32.1094C44.5635 31.5059 44.1855 31.04 43.6992 30.7119C43.2129 30.3779 42.6562 30.2109 42.0293 30.2109C41.0918 30.2109 40.3271 30.5801 39.7354 31.3184C39.1436 32.0508 38.8477 33.0117 38.8477 34.2012V34.3945ZM49.6406 39H48.5859V25.5H49.6406V39ZM53.6836 39H52.6289V29.4902H53.6836V39ZM52.4443 26.7393C52.4443 26.54 52.5088 26.373 52.6377 26.2383C52.7666 26.0977 52.9424 26.0273 53.165 26.0273C53.3877 26.0273 53.5635 26.0977 53.6924 26.2383C53.8271 26.373 53.8945 26.54 53.8945 26.7393C53.8945 26.9385 53.8271 27.1055 53.6924 27.2402C53.5635 27.375 53.3877 27.4424 53.165 27.4424C52.9424 27.4424 52.7666 27.375 52.6377 27.2402C52.5088 27.1055 52.4443 26.9385 52.4443 26.7393ZM60.0645 38.2881C60.7969 38.2881 61.4092 38.083 61.9014 37.6729C62.3994 37.2568 62.6689 36.7207 62.71 36.0645H63.7207C63.6914 36.6445 63.5098 37.1748 63.1758 37.6553C62.8418 38.1299 62.3965 38.502 61.8398 38.7715C61.2891 39.041 60.6973 39.1758 60.0645 39.1758C58.8164 39.1758 57.8262 38.7422 57.0938 37.875C56.3672 37.0078 56.0039 35.8418 56.0039 34.377V34.0605C56.0039 33.123 56.168 32.2939 56.4961 31.5732C56.8242 30.8525 57.293 30.2959 57.9023 29.9033C58.5176 29.5107 59.2354 29.3145 60.0557 29.3145C61.0986 29.3145 61.957 29.625 62.6309 30.2461C63.3105 30.8672 63.6738 31.6846 63.7207 32.6982H62.71C62.6631 31.9541 62.3936 31.3535 61.9014 30.8965C61.415 30.4395 60.7998 30.2109 60.0557 30.2109C59.1064 30.2109 58.3682 30.5537 57.8408 31.2393C57.3193 31.9248 57.0586 32.8857 57.0586 34.1221V34.4297C57.0586 35.6426 57.3193 36.5889 57.8408 37.2686C58.3682 37.9482 59.1094 38.2881 60.0645 38.2881ZM71.833 39C71.7275 38.7012 71.6602 38.2588 71.6309 37.6729C71.2617 38.1533 70.79 38.5254 70.2158 38.7891C69.6475 39.0469 69.0439 39.1758 68.4053 39.1758C67.4912 39.1758 66.75 38.9209 66.1816 38.4111C65.6191 37.9014 65.3379 37.2568 65.3379 36.4775C65.3379 35.5518 65.7217 34.8193 66.4893 34.2803C67.2627 33.7412 68.3379 33.4717 69.7148 33.4717H71.6221V32.3906C71.6221 31.7109 71.4111 31.1777 70.9893 30.791C70.5732 30.3984 69.9639 30.2021 69.1611 30.2021C68.4287 30.2021 67.8223 30.3896 67.3418 30.7646C66.8613 31.1396 66.6211 31.5908 66.6211 32.1182L65.5664 32.1094C65.5664 31.3535 65.918 30.7002 66.6211 30.1494C67.3242 29.5928 68.1885 29.3145 69.2139 29.3145C70.2744 29.3145 71.1094 29.5811 71.7188 30.1143C72.334 30.6416 72.6504 31.3799 72.668 32.3291V36.8291C72.668 37.749 72.7646 38.4375 72.958 38.8945V39H71.833ZM68.5283 38.2441C69.2314 38.2441 69.8584 38.0742 70.4092 37.7344C70.9658 37.3945 71.3701 36.9404 71.6221 36.3721V34.2803H69.7412C68.6924 34.292 67.8721 34.4854 67.2803 34.8604C66.6885 35.2295 66.3926 35.7393 66.3926 36.3896C66.3926 36.9229 66.5889 37.3652 66.9814 37.7168C67.3799 38.0684 67.8955 38.2441 68.5283 38.2441Z" fill="white"/>
</svg>
